<svg xmlns="http://www.w3.org/2000/svg" width="62.202" height="43.541" viewBox="0 0 62.202 43.541"><defs><style>.a{fill:#969799;}</style></defs><path class="a" d="M52.25,50.913A9.341,9.341,0,0,0,43.541,38.22a9.283,9.283,0,0,0-5.18,1.574A15.552,15.552,0,0,0,9.33,47.551c0,.262.01.525.019.787A14,14,0,0,0,14,75.541H49.762A12.44,12.44,0,0,0,52.25,50.913ZM38.235,56.881H31.879V67.766a1.56,1.56,0,0,1-1.555,1.555H25.658A1.56,1.56,0,0,1,24.1,67.766V56.881H17.747a1.552,1.552,0,0,1-1.1-2.653L26.893,43.984a1.56,1.56,0,0,1,2.2,0L39.333,54.228a1.554,1.554,0,0,1-1.1,2.653Z" transform="translate(0 -32)"/></svg>