<svg xmlns="http://www.w3.org/2000/svg" width="42.675" height="56.9" viewBox="0 0 42.675 56.9"><defs><style>.a{fill:#969799;}</style></defs><path class="a" d="M24.894,15.114V0H2.667A2.661,2.661,0,0,0,0,2.667V54.233A2.661,2.661,0,0,0,2.667,56.9H40.008a2.661,2.661,0,0,0,2.667-2.667V17.781H27.561A2.675,2.675,0,0,1,24.894,15.114ZM32.138,39.12H24.894v8.891a1.778,1.778,0,0,1-1.778,1.778H19.56a1.778,1.778,0,0,1-1.778-1.778V39.12H10.538A1.778,1.778,0,0,1,9.285,36.08L20,25.444a1.9,1.9,0,0,1,2.672,0L33.388,36.08A1.777,1.777,0,0,1,32.138,39.12ZM41.9,11.669,31.017.778A2.665,2.665,0,0,0,29.128,0H28.45V14.225H42.675v-.678A2.659,2.659,0,0,0,41.9,11.669Z"/></svg>