<svg xmlns="http://www.w3.org/2000/svg" width="60" height="60" viewBox="0 0 60 60"><defs><style>.a{fill:#fafbfc;}</style></defs><path class="a" d="M30,8A30,30,0,1,0,60,38,29.995,29.995,0,0,0,30,8Zm0,11.613A10.645,10.645,0,1,1,19.355,30.258,10.645,10.645,0,0,1,30,19.613Zm0,41.613a23.181,23.181,0,0,1-17.722-8.25c2.274-4.282,9.394-6.634,11.915-7.234a23.58,23.58,0,0,1,5.806-.7,31.161,31.161,0,0,1,5.806.7c2.421.512,9.641,2.952,11.915,7.234A23.181,23.181,0,0,1,30,61.226Z" transform="translate(0 -8)"/></svg>